<svg id="图层_1" data-name="图层 1" xmlns="http://www.w3.org/2000/svg" viewBox="0 0 125.24 125.24"><defs><style>.cls-1{fill:#0071bc;}.cls-2,.cls-3{fill:none;stroke:#ff0;stroke-miterlimit:10;}.cls-2{stroke-width:10px;}.cls-3{stroke-width:3px;}.cls-4{fill:#ff0;}</style></defs><title>班车酱(1)</title><circle class="cls-1" cx="62.62" cy="62.62" r="62.62"/><path class="cls-2" d="M104.13,77l3.25-.08c0-7-.21-24.33-.21-30.87,0-9.13-11.36-9.71-11.36-9.71s-56.42.11-66.88.06c-11.8-.06-11,9.78-11,9.78V77.41h9.36" transform="translate(-0.37)"/><circle class="cls-3" cx="38.47" cy="80.89" r="7.34"/><circle class="cls-3" cx="86.47" cy="80.89" r="7.34"/><rect class="cls-4" x="28.46" y="45.67" width="11.37" height="11.37"/><rect class="cls-4" x="45.81" y="45.67" width="22.31" height="11.37"/><rect class="cls-4" x="73.96" y="45.67" width="22.83" height="11.37"/><path class="cls-4" d="M28.92,82.41a9.48,9.48,0,0,1,.79-6,10.69,10.69,0,0,1,4-4.12l-20.8.11v10Z" transform="translate(-0.37)"/><path class="cls-4" d="M76.92,82.41a9.48,9.48,0,0,1,.79-6,10.69,10.69,0,0,1,4-4.12l-20.8.11v10Z" transform="translate(-0.37)"/><path class="cls-4" d="M48.65,82.41a9.45,9.45,0,0,0-.78-6,10.69,10.69,0,0,0-4-4.12l20.8.11v10Z" transform="translate(-0.37)"/><path class="cls-4" d="M96.65,82.41a9.45,9.45,0,0,0-.78-6,10.69,10.69,0,0,0-4-4.12h19l1.48,10.08Z" transform="translate(-0.37)"/><path class="cls-4" d="M77.75,78.94" transform="translate(-0.37)"/><path class="cls-4" d="M98.38,98.24" transform="translate(-0.37)"/></svg>